<svg width="82" height="72" viewBox="0 0 82 72" fill="none" xmlns="http://www.w3.org/2000/svg">
<path d="M76.2513 40.8195H78.1201V41.1123H77.3672V43.5878H77.0067V41.1123H76.2513V40.8195ZM78.564 40.8391H78.9515L79.9644 43.1129L80.9773 40.8391H81.3624V43.5878H81.0018V41.538L80.0919 43.5878H79.8393L78.9245 41.5331V43.5878H78.564V40.8391ZM24.5252 33.8481C15.6275 34.6207 7.03873 34.5592 7.03873 24.0443C7.03873 15.2396 14.5508 7.54722 25.4106 5.21194L47.8855 0.386344C45.6438 0.130423 43.3434 0 40.9963 0C18.3547 0 0 12.2842 0 27.4353C0 35.5903 5.31707 42.9185 13.7586 47.941L26.5461 45.1947C31.7233 44.0824 34.946 40.7899 34.946 37.1799C34.9484 32.9376 30.0851 33.351 24.5252 33.8481ZM61.3204 37.2931L81.1441 33.036C81.7032 31.2273 82 29.3547 82 27.4353C82 18.163 75.1231 9.96371 64.5994 5.00031L57.4993 6.3685L25.6656 13.2046C20.6796 14.275 17.3957 17.3239 17.3957 20.6164C17.3957 24.8613 21.8814 24.534 27.5614 24.0714C36.2752 23.215 45.298 23.1781 45.298 33.5675C45.298 42.6699 37.9111 50.5937 26.7913 53.1824C31.2181 54.2775 36.0054 54.8754 40.9988 54.8754C54.9879 54.8754 67.3438 50.1852 74.743 43.0243L55.449 47.1683C51.3214 48.0541 47.9713 45.4137 47.9713 41.2722V9.92187L58.1247 7.74162V34.7758C58.1272 36.5426 59.5594 37.6696 61.3204 37.2931ZM4.35813 72C2.1484 72 0.559174 70.6638 0.559174 68.8256H2.40347C2.40347 69.7681 3.24713 70.4423 4.41944 70.4423C5.42007 70.4423 6.04301 69.9403 6.04301 69.2415C6.04301 68.4196 5.10369 68.299 4.02703 68.1637C2.30536 67.9422 0.645014 67.5755 0.645014 65.5405C0.645014 63.8376 2.09936 62.6613 4.19871 62.6613C6.31033 62.6613 7.83825 63.936 7.83825 65.6881H6.05527C6.06753 64.8293 5.29744 64.2165 4.24777 64.2165C3.28393 64.2165 2.64872 64.6693 2.64872 65.3067C2.64872 66.1286 3.51692 66.2492 4.61564 66.3968C6.30053 66.5937 8.04672 66.9603 8.04672 68.9708C8.04672 70.7622 6.56785 72 4.35813 72ZM12.2356 69.1923V71.6924H10.2564V62.9689H14.0186C16.1204 62.9689 17.5846 64.2559 17.5846 66.0818C17.5846 67.92 16.118 69.1947 13.9941 69.1947H12.2356V69.1923ZM12.2356 64.5241V67.637H13.6287C14.7519 67.637 15.5343 66.9874 15.5343 66.0818C15.5343 65.164 14.7519 64.5266 13.6287 64.5266H12.2356V64.5241ZM19.2204 67.3294C19.2204 64.5734 21.1751 62.6613 24.0322 62.6613C26.8772 62.6613 28.8441 64.5734 28.8441 67.3294C28.8441 70.0978 26.8772 71.9975 24.0322 71.9975C21.1751 72 19.2204 70.1003 19.2204 67.3294ZM21.2732 67.3294C21.2732 69.0323 22.4087 70.2209 24.0322 70.2332C25.6558 70.2332 26.7913 69.0323 26.7913 67.3294C26.7913 65.6266 25.6558 64.4257 24.0322 64.4257C22.4087 64.4257 21.2732 65.6266 21.2732 67.3294ZM33.0575 71.6924H31.0048V62.9689H35.2182C37.2342 62.9689 38.637 64.1698 38.637 65.9096C38.637 67.0858 37.8669 68.0652 36.7314 68.4343L38.8332 71.6949H36.5376L34.8282 68.705H33.0575V71.6924ZM33.0575 64.5241V67.2556H34.8896C35.8534 67.2556 36.5867 66.7167 36.5867 65.9071C36.5867 65.0237 35.8534 64.5217 34.8896 64.5217H33.0575V64.5241ZM42.5708 64.6841H39.9565V62.9689H47.2355V64.6841H44.6212V71.6924H42.5684V64.6841H42.5708ZM49.0185 71.6924V62.9689H51.0713V69.928H54.7108V71.6924H49.0185ZM58.1174 71.6924H55.9567L58.8752 62.9665H61.855L64.7612 71.6924H62.6128L62.137 70.2455H58.5956L58.1174 71.6924ZM58.9978 68.7764H61.7324L60.3639 64.7333L58.9978 68.7764ZM70.4045 64.5857H66.2524V62.9689H73.0679V64.3175L68.8668 70.0757H73.1906V71.6924H66.1322V70.3439L70.4045 64.5857ZM77.3034 70.0388H81.5536V71.6924H75.3242V62.9689H81.431V64.6226H77.3034V66.4854H80.943V67.9569H77.3034V70.0388Z" fill="url(#paint0_linear_1304_159)"/>
<defs>
<linearGradient id="paint0_linear_1304_159" x1="0.00225632" y1="35.9988" x2="82.0002" y2="35.9988" gradientUnits="userSpaceOnUse">
<stop offset="0.9974" stop-color="white"/>
</linearGradient>
</defs>
</svg>
